<?xml version="1.0" encoding="utf-8"?>
<!-- Generator: Adobe Illustrator 25.4.1, SVG Export Plug-In . SVG Version: 6.00 Build 0)  -->
<svg version="1.1" id="Warstwa_1" xmlns="http://www.w3.org/2000/svg" xmlns:xlink="http://www.w3.org/1999/xlink" x="0px" y="0px"
	 viewBox="0 0 150.2 150.2" style="enable-background:new 0 0 150.2 150.2;" xml:space="preserve">
<style type="text/css">
	.st0{fill:none;stroke:#000000;stroke-width:1.4173;stroke-linecap:round;stroke-linejoin:round;stroke-miterlimit:10;}
	.st1{fill:none;stroke:#000000;stroke-width:1.4173;stroke-miterlimit:10;}
	.st2{fill:none;stroke:#000000;stroke-width:1.4173;stroke-linecap:round;stroke-linejoin:round;}
	.st3{fill:none;stroke:#000000;stroke-width:1.4173;stroke-linecap:round;stroke-miterlimit:10;}
	.st4{fill:#FFFFFF;stroke:#000000;stroke-width:1.4173;stroke-miterlimit:10;}
	.st5{fill:#FFFFFF;}
	.st6{fill:none;stroke:#1D1E1D;stroke-width:3;stroke-linecap:round;stroke-linejoin:round;}
	.st7{fill:none;stroke:#1D1E1D;stroke-width:3;stroke-miterlimit:10;}
	.st8{fill:none;stroke:#1D1E1D;stroke-width:3;stroke-linecap:round;stroke-miterlimit:10;}
	.st9{fill:none;stroke:#161615;stroke-width:3;stroke-linecap:round;stroke-linejoin:round;}
	.st10{fill:none;stroke:#161615;stroke-width:3;stroke-miterlimit:10;}
	.st11{fill:#FFFFFF;stroke:#161615;stroke-width:3;stroke-miterlimit:10;}
</style>
<g id="Component_15_1" transform="translate(1.5 22)">
	<g id="Group_2268" transform="translate(-180 -642)">
		<path id="Path_825" class="st5" d="M227.9,666.5l-5,6.3l-10.3,65.7h75.8l6.7-5.5l-10-66.5H227.9z"/>
		<path id="Path_319" class="st6" d="M289.1,738.9l5.5-5.5l-9.6-66.9h-57.3l-5.5,5.5"/>
		<path id="Path_320" class="st6" d="M212.7,738.9h76.4l-9.6-66.9h-57.3L212.7,738.9z"/>
		<path id="Path_321" class="st6" d="M264.9,681.3v-21.9c-0.1-7.7-6.4-14-14.1-13.9c-7.6,0.1-13.8,6.2-13.9,13.9v21.3"/>
		<path id="Path_322" class="st6" d="M270.2,665.5v-11.4c0.1-7.7-6.2-14.1-13.9-14.1c-7.7-0.1-14.1,6.2-14.1,13.9c0,0.1,0,0.2,0,0.2
			V665"/>
		<path id="Path_323" class="st6" d="M214.3,727.1h73.1l5.6-4.5"/>
		<line id="Line_1" class="st6" x1="279.5" y1="672" x2="285" y2="666.5"/>
	</g>
</g>
</svg>
