<?xml version="1.0" encoding="utf-8"?>
<!-- Generator: Adobe Illustrator 25.4.1, SVG Export Plug-In . SVG Version: 6.00 Build 0)  -->
<svg version="1.1" id="Warstwa_1" xmlns="http://www.w3.org/2000/svg" xmlns:xlink="http://www.w3.org/1999/xlink" x="0px" y="0px"
	 viewBox="0 0 150.2 150.2" style="enable-background:new 0 0 150.2 150.2;" xml:space="preserve">
<style type="text/css">
	.st0{fill:none;stroke:#000000;stroke-width:1.4173;stroke-linecap:round;stroke-linejoin:round;stroke-miterlimit:10;}
	.st1{fill:none;stroke:#000000;stroke-width:1.4173;stroke-miterlimit:10;}
	.st2{fill:none;stroke:#000000;stroke-width:1.4173;stroke-linecap:round;stroke-linejoin:round;}
	.st3{fill:none;stroke:#000000;stroke-width:1.4173;stroke-linecap:round;stroke-miterlimit:10;}
	.st4{fill:#FFFFFF;stroke:#000000;stroke-width:1.4173;stroke-miterlimit:10;}
	.st5{fill:#FFFFFF;}
	.st6{fill:none;stroke:#1D1E1D;stroke-width:3;stroke-linecap:round;stroke-linejoin:round;}
	.st7{fill:none;stroke:#1D1E1D;stroke-width:3;stroke-miterlimit:10;}
	.st8{fill:none;stroke:#1D1E1D;stroke-width:3;stroke-linecap:round;stroke-miterlimit:10;}
	.st9{fill:none;stroke:#161615;stroke-width:3;stroke-linecap:round;stroke-linejoin:round;}
	.st10{fill:none;stroke:#161615;stroke-width:3;stroke-miterlimit:10;}
	.st11{fill:#FFFFFF;stroke:#161615;stroke-width:3;stroke-miterlimit:10;}
</style>
<g id="Component_17_1" transform="translate(286.5 22)">
	<g id="Group_2271" transform="translate(-465 -642)">
		<rect id="Rectangle_671" x="217.6" y="659.6" class="st5" width="15" height="16"/>
		<rect id="Rectangle_672" x="217.6" y="688.6" class="st5" width="15" height="16"/>
		<rect id="Rectangle_673" x="217.6" y="717.6" class="st5" width="15" height="16"/>
		<path id="Rectangle_677_00000028286034334529946240000018181064313200706957_" class="st7" d="M218.1,660.2H231
			c0.6,0,1.1,0.5,1.1,1.1v12.9c0,0.6-0.5,1.1-1.1,1.1h-12.9c-0.6,0-1.1-0.5-1.1-1.1v-12.9C217,660.7,217.5,660.2,218.1,660.2z"/>
		<path id="Rectangle_678_00000061455468726218983780000016412957176837331087_" class="st7" d="M218.1,689.4H231
			c0.6,0,1.1,0.5,1.1,1.1v12.9c0,0.6-0.5,1.1-1.1,1.1h-12.9c-0.6,0-1.1-0.5-1.1-1.1v-12.9C217,689.9,217.5,689.4,218.1,689.4z"/>
		<path id="Rectangle_679_00000155124323098378110730000005124707469025437840_" class="st7" d="M218.1,718.6H231
			c0.6,0,1.1,0.5,1.1,1.1v12.9c0,0.6-0.5,1.1-1.1,1.1h-12.9c-0.6,0-1.1-0.5-1.1-1.1v-12.9C217,719.1,217.5,718.6,218.1,718.6z"/>
		<path id="Path_1016_00000176007378033162600960000004181973633369491627_" class="st6" d="M218.6,660.1l6.4,9.4l9.5-13.9"/>

			<line id="Line_8_00000120553963338452669100000013781054718754847639_" class="st8" x1="245.3" y1="663.1" x2="290.2" y2="663.1"/>

			<line id="Line_9_00000124144627161978629330000013334920190408104843_" class="st8" x1="245.3" y1="672.4" x2="274.8" y2="672.4"/>

			<line id="Line_10_00000177452936306314059970000006465637958671289784_" class="st8" x1="245.3" y1="692.3" x2="267.8" y2="692.3"/>

			<line id="Line_11_00000168807866715156478120000002432622306003137722_" class="st8" x1="245.3" y1="701.6" x2="285.9" y2="701.6"/>

			<line id="Line_12_00000178927962859384582920000000131286738560376731_" class="st8" x1="245.3" y1="721.5" x2="283.4" y2="721.5"/>

			<line id="Line_13_00000054261534997097715110000004995420808981194934_" class="st8" x1="245.3" y1="730.8" x2="285.9" y2="730.8"/>
	</g>
</g>
</svg>
