<?xml version="1.0" encoding="utf-8"?>
<!-- Generator: Adobe Illustrator 25.4.1, SVG Export Plug-In . SVG Version: 6.00 Build 0)  -->
<svg version="1.1" id="Warstwa_1" xmlns="http://www.w3.org/2000/svg" xmlns:xlink="http://www.w3.org/1999/xlink" x="0px" y="0px"
	 viewBox="0 0 150.2 150.2" style="enable-background:new 0 0 150.2 150.2;" xml:space="preserve">
<style type="text/css">
	.st0{fill:none;stroke:#000000;stroke-width:1.4173;stroke-linecap:round;stroke-linejoin:round;stroke-miterlimit:10;}
	.st1{fill:none;stroke:#000000;stroke-width:1.4173;stroke-miterlimit:10;}
	.st2{fill:none;stroke:#000000;stroke-width:1.4173;stroke-linecap:round;stroke-linejoin:round;}
	.st3{fill:none;stroke:#000000;stroke-width:1.4173;stroke-linecap:round;stroke-miterlimit:10;}
	.st4{fill:#FFFFFF;stroke:#000000;stroke-width:1.4173;stroke-miterlimit:10;}
	.st5{fill:#FFFFFF;}
	.st6{fill:none;stroke:#1D1E1D;stroke-width:3;stroke-linecap:round;stroke-linejoin:round;}
	.st7{fill:none;stroke:#1D1E1D;stroke-width:3;stroke-miterlimit:10;}
	.st8{fill:none;stroke:#1D1E1D;stroke-width:3;stroke-linecap:round;stroke-miterlimit:10;}
	.st9{fill:none;stroke:#161615;stroke-width:3;stroke-linecap:round;stroke-linejoin:round;}
	.st10{fill:none;stroke:#161615;stroke-width:3;stroke-miterlimit:10;}
	.st11{fill:#FFFFFF;stroke:#161615;stroke-width:3;stroke-miterlimit:10;}
</style>
<g id="Component_18_1" transform="translate(571.5 22)">
	<g id="Group_2272" transform="translate(-750 -642)">
		<path id="Path_826" class="st5" d="M212.4,659.6c0,0-6,8-1,17s6.6,9.2,6.6,9.2l-3.8,25.2l4.8,21h70l5.4-21l-4.2-25.2
			c0,0,9.2-8.6,8.4-16s-5.8-18.4-16-18s-17.2,7.8-17.2,7.8h-23.8c0,0-8.6-8.6-15.6-7.8S212.4,659.6,212.4,659.6z"/>
		<path id="Path_340" class="st9" d="M289.3,732.4h-70.5l-4.9-21.1h80.2L289.3,732.4z"/>
		<path id="Path_341" class="st9" d="M290.2,685.4l4,25.8H214l4-25.8"/>
		<line id="Line_3" class="st9" x1="242.3" y1="659.5" x2="265.9" y2="659.5"/>
		<path id="Path_342" class="st10" d="M247.5,688.8c-7.3,0.7-17.7,1-25.5-1.4c-3.7-1.3-6.8-3.7-8.9-7c-6.5-10-3.7-24.2,8.9-27.4
			c4.3-1.1,8.8-0.7,12.8,1.2c9.2,4.5,14.5,14.5,18.3,23.6"/>
		<path id="Path_343" class="st10" d="M210.3,664.7c4.3-4.2,10.6-5.6,16.3-3.5c6.2,2.2,10.4,8.1,13.6,13.5c1.6,2.8,3.1,5.7,4.6,8.6"
			/>
		<path id="Path_344" class="st10" d="M245.1,683.9c-5.7-0.8-11.5-1.9-16.7-4.6c-3.4-1.7-7.1-4.6-7.8-8.6c-1.1-5.7,5-9.6,10-7.5"/>
		<path id="Path_345" class="st11" d="M262.7,686.4c0,4.8-17.2,4.8-17.2,0c0-4.8,3.9-8.6,8.6-8.6S262.7,681.6,262.7,686.4
			C262.7,686.4,262.7,686.4,262.7,686.4z"/>
		<path id="Path_346" class="st10" d="M260.7,688.8c7.3,0.7,17.5,1,25.5-1.4c3.7-1.3,6.8-3.7,8.9-7c6.5-10,3.7-24.2-8.9-27.4
			c-4.3-1.1-8.8-0.7-12.8,1.2c-9.6,4.7-14.6,14-18.5,23.5"/>
		<path id="Path_347" class="st10" d="M297.9,664.7c-4.3-4.2-10.6-5.6-16.3-3.5c-6.2,2.2-10.4,8.1-13.6,13.5c-1.8,3.1-3.4,6.3-5,9.4
			"/>
		<path id="Path_348" class="st10" d="M263.1,683.9c5.7-0.8,11.5-1.9,16.7-4.6c3.4-1.7,7.1-4.6,7.8-8.6c1.1-5.7-5-9.6-10-7.5"/>
		<path id="Path_349" class="st10" d="M245.5,686.4c0,4.8,17.2,4.8,17.2,0c0-4.8-3.9-8.6-8.6-8.6S245.5,681.6,245.5,686.4
			C245.5,686.4,245.5,686.4,245.5,686.4z"/>
	</g>
</g>
</svg>
