<?xml version="1.0" encoding="utf-8"?>
<!-- Generator: Adobe Illustrator 25.4.1, SVG Export Plug-In . SVG Version: 6.00 Build 0)  -->
<svg version="1.1" id="Warstwa_1" xmlns="http://www.w3.org/2000/svg" xmlns:xlink="http://www.w3.org/1999/xlink" x="0px" y="0px"
	 viewBox="0 0 150.2 150.2" style="enable-background:new 0 0 150.2 150.2;" xml:space="preserve">
<style type="text/css">
	.st0{fill:none;stroke:#000000;stroke-width:1.4173;stroke-linecap:round;stroke-linejoin:round;stroke-miterlimit:10;}
	.st1{fill:none;stroke:#000000;stroke-width:1.4173;stroke-miterlimit:10;}
	.st2{fill:none;stroke:#000000;stroke-width:1.4173;stroke-linecap:round;stroke-linejoin:round;}
	.st3{fill:none;stroke:#000000;stroke-width:1.4173;stroke-linecap:round;stroke-miterlimit:10;}
	.st4{fill:#FFFFFF;stroke:#000000;stroke-width:1.4173;stroke-miterlimit:10;}
	.st5{fill:#FFFFFF;}
	.st6{fill:none;stroke:#1D1E1D;stroke-width:3;stroke-linecap:round;stroke-linejoin:round;}
	.st7{fill:none;stroke:#1D1E1D;stroke-width:3;stroke-miterlimit:10;}
	.st8{fill:none;stroke:#1D1E1D;stroke-width:3;stroke-linecap:round;stroke-miterlimit:10;}
	.st9{fill:none;stroke:#161615;stroke-width:3;stroke-linecap:round;stroke-linejoin:round;}
	.st10{fill:none;stroke:#161615;stroke-width:3;stroke-miterlimit:10;}
	.st11{fill:#FFFFFF;stroke:#161615;stroke-width:3;stroke-miterlimit:10;}
	.st12{fill:#161615;}
	.st13{fill:#010202;}
</style>
<g id="Component_53_1" transform="translate(1 1.5)">
	<g id="Group_2308_00000098934238826261470280000001664755730579396243_" transform="translate(-180 -749)">
		<g id="Group_2298" transform="translate(-315 -650.802)">
			<path id="Path_843" class="st12" d="M514.1,1472c-1.3,0-2.6-0.2-3.9-0.6c-1.1-0.4-2-1.2-2.6-2.3c-0.8-1.5-1.1-3.1-1-4.8v-1.4h4.4
				v0.5c0,1,0.1,2,0.3,3c0.1,0.6,0.4,1.1,0.9,1.4c0.5,0.3,1,0.4,1.6,0.4c0.7,0.1,1.4-0.2,2-0.6c0.5-0.7,0.8-1.6,0.7-2.4V1449h4.7
				v16.1c0.4,3.4-2,6.5-5.4,6.9C515.2,1472.1,514.6,1472.1,514.1,1472L514.1,1472z"/>
			<path id="Path_844" class="st12" d="M532.2,1468.1c3,0,4.5-1.4,4.5-4.3V1449h4.8v14.8c0.1,2.3-0.7,4.5-2.3,6.1
				c-1.6,1.4-3.9,2.1-6.9,2.1c-2.4,0.1-4.7-0.6-6.5-2.1c-1.7-1.6-2.5-3.9-2.4-6.2V1449h4.8v14.7c-0.1,1.2,0.3,2.3,1.1,3.2
				C530,1467.7,531.1,1468.2,532.2,1468.1z"/>
			<path id="Path_845" class="st12" d="M551.3,1452.3c-1,0-2,0.2-2.8,0.7c-0.7,0.4-1.1,1.2-1.1,2c0,0.5,0.2,1.1,0.5,1.5
				c0.6,0.5,1.4,0.8,2.1,1l5.3,1.3c1.7,0.3,3.3,1.1,4.5,2.3c0.9,1.1,1.3,2.4,1.3,3.8c0,1.4-0.4,2.9-1.2,4.1c-0.8,1.1-1.9,2-3.2,2.5
				c-1.4,0.6-3,0.8-4.5,0.8c-2.5,0.1-4.9-0.5-6.9-1.9c-1.7-1.4-2.7-3.4-2.6-5.6h4.5c0,1,0.5,2,1.3,2.7c1,0.7,2.2,1,3.5,1
				c1.2,0.1,2.4-0.2,3.5-0.7c0.8-0.4,1.3-1.3,1.2-2.2c0-0.6-0.2-1.1-0.6-1.5c-0.6-0.5-1.4-0.8-2.1-1c-1-0.3-2.7-0.7-5-1.2
				c-1.7-0.3-3.2-1-4.4-2.2c-1-1.1-1.5-2.6-1.4-4.1c0-1.3,0.3-2.5,1-3.6c0.7-1.1,1.7-1.9,2.9-2.5c1.5-0.6,3.1-0.9,4.8-0.9
				c1.6,0,3.1,0.3,4.6,0.9c2.6,1.1,4.2,3.6,4.2,6.4h-4.5C555.7,1453.4,554.2,1452.3,551.3,1452.3z"/>
			<path id="Path_846" class="st12" d="M572,1453v18.5h-4.7V1453h-6.8v-4h18.3v4L572,1453z"/>
			<path id="Path_847" class="st12" d="M513,1478v5.1h9.9v4H513v9.4h-4.7V1474h16v4L513,1478z"/>
			<path id="Path_848" class="st12" d="M534.6,1497.1c-1.9,0-3.9-0.4-5.6-1.3c-1.7-0.9-3-2.3-3.8-4c-1.9-4.1-1.9-8.8,0-13
				c0.8-1.7,2.2-3.1,3.8-4c1.7-0.9,3.6-1.4,5.6-1.3c2,0,3.9,0.4,5.6,1.4c1.6,0.9,3,2.3,3.8,4c1.8,4.1,1.8,8.8,0,12.9
				c-0.8,1.7-2.2,3.1-3.8,4C538.4,1496.7,536.5,1497.1,534.6,1497.1z M540.7,1485.3c0.1-2.1-0.5-4.1-1.7-5.8
				c-1.1-1.3-2.7-2.1-4.5-2.1c-1.7,0-3.3,0.7-4.4,2.1c-2.2,3.5-2.2,8.1,0,11.6c2.1,2.5,5.8,2.7,8.2,0.6c0.2-0.2,0.4-0.4,0.6-0.6
				C540.2,1489.4,540.8,1487.3,540.7,1485.3L540.7,1485.3z"/>
			<path id="Path_849" class="st12" d="M565.2,1480.4c0,1.2-0.3,2.3-0.9,3.3c-0.6,0.9-1.5,1.7-2.6,2l0.8,0.4
				c0.8,0.4,1.4,1.1,1.7,1.9c0.3,1,0.4,2.1,0.4,3.1v2.1c0,1.6,0.3,2.5,1,2.6v0.6h-5.2c-0.1-0.5-0.3-1-0.3-1.5
				c-0.1-0.6-0.1-1.1-0.1-1.7l0-2.4c0.1-0.7-0.1-1.5-0.5-2.1c-0.3-0.4-0.7-0.7-1.3-0.9c-0.6-0.1-1.3-0.2-1.9-0.2h-4.8v8.8h-4.6V1474
				h11.6c1.3,0,2.5,0.3,3.6,0.9c1,0.5,1.8,1.3,2.4,2.3C565,1478.2,565.3,1479.3,565.2,1480.4z M560.6,1480.9c0-0.8-0.3-1.6-0.9-2.1
				c-0.6-0.6-1.5-0.8-2.3-0.8h-6v6h5.6c0.9,0.1,1.9-0.2,2.6-0.7C560.3,1482.6,560.6,1481.7,560.6,1480.9L560.6,1480.9z"/>
			<path id="Path_850" class="st12" d="M582.6,1483.8l4.4-9.8h5.3l-7.5,14v8.4h-4.7v-8.5l-7.8-14h5.5L582.6,1483.8L582.6,1483.8z"/>
			<path id="Path_851" class="st12" d="M601.4,1497.1c-1.9,0-3.9-0.4-5.6-1.3c-1.7-0.9-3-2.3-3.8-4c-1.9-4.1-1.9-8.8,0-13
				c0.8-1.7,2.2-3.1,3.8-4c1.7-0.9,3.6-1.4,5.6-1.3c2,0,3.9,0.4,5.6,1.4c1.6,0.9,3,2.3,3.8,4c1.8,4.1,1.8,8.8,0,12.9
				c-0.8,1.7-2.2,3.1-3.9,4C605.2,1496.7,603.3,1497.1,601.4,1497.1z M607.5,1485.3c0.1-2.1-0.5-4.1-1.7-5.8
				c-1.1-1.3-2.7-2.1-4.5-2.1c-1.7-0.1-3.3,0.7-4.4,2.1c-2.2,3.5-2.2,8.1,0,11.6c2.1,2.5,5.8,2.7,8.2,0.6c0.2-0.2,0.4-0.4,0.6-0.6
				C607,1489.4,607.6,1487.3,607.5,1485.3z"/>
			<path id="Path_852" class="st12" d="M622.3,1493.1c3,0,4.5-1.4,4.5-4.3V1474h4.8v14.8c0.1,2.3-0.7,4.5-2.3,6.1
				c-1.6,1.4-3.9,2.1-6.9,2.1c-2.4,0.1-4.7-0.6-6.5-2.1c-1.7-1.6-2.5-3.9-2.4-6.2V1474h4.8v14.7c-0.1,1.2,0.3,2.3,1.1,3.2
				C620.1,1492.8,621.2,1493.2,622.3,1493.1z"/>
		</g>
	</g>
</g>
</svg>
