<?xml version="1.0" encoding="utf-8"?>
<!-- Generator: Adobe Illustrator 25.4.1, SVG Export Plug-In . SVG Version: 6.00 Build 0)  -->
<svg version="1.1" id="Warstwa_1" xmlns="http://www.w3.org/2000/svg" xmlns:xlink="http://www.w3.org/1999/xlink" x="0px" y="0px"
	 viewBox="0 0 150.2 150.2" style="enable-background:new 0 0 150.2 150.2;" xml:space="preserve">
<style type="text/css">
	.st0{fill:none;stroke:#000000;stroke-width:1.4173;stroke-linecap:round;stroke-linejoin:round;stroke-miterlimit:10;}
	.st1{fill:none;stroke:#000000;stroke-width:1.4173;stroke-miterlimit:10;}
	.st2{fill:none;stroke:#000000;stroke-width:1.4173;stroke-linecap:round;stroke-linejoin:round;}
	.st3{fill:none;stroke:#000000;stroke-width:1.4173;stroke-linecap:round;stroke-miterlimit:10;}
	.st4{fill:#FFFFFF;stroke:#000000;stroke-width:1.4173;stroke-miterlimit:10;}
	.st5{fill:#FFFFFF;}
	.st6{fill:none;stroke:#1D1E1D;stroke-width:3;stroke-linecap:round;stroke-linejoin:round;}
	.st7{fill:none;stroke:#1D1E1D;stroke-width:3;stroke-miterlimit:10;}
	.st8{fill:none;stroke:#1D1E1D;stroke-width:3;stroke-linecap:round;stroke-miterlimit:10;}
	.st9{fill:none;stroke:#161615;stroke-width:3;stroke-linecap:round;stroke-linejoin:round;}
	.st10{fill:none;stroke:#161615;stroke-width:3;stroke-miterlimit:10;}
	.st11{fill:#FFFFFF;stroke:#161615;stroke-width:3;stroke-miterlimit:10;}
	.st12{fill:#161615;}
	.st13{fill:#010202;}
</style>
<g id="Component_55_1" transform="translate(286 1.5)">
	<g id="Group_2306_00000073690436876885293400000008953538680830952623_" transform="translate(-465 -812.5)">
		<path id="Path_827" class="st5" d="M225.2,856.7c-2.4,4.4-2,10.3-3.3,11.9s-6.1,7.3-6.1,7.3l-2.9-0.6h-11l-2.3,2v22.4l1.4,3.3
			h11.9l2.9-2.4l4.3,0.7h16.4c0,0,7.9,0,8-6.9c2-2,3.3-5.3,1.9-8.1c1.6-1.3,1.9-5.1,0-7.6c0.1-3.6,0.4-6.9-3.9-6.7
			s-11.6,1.3-11.6,1.3c-0.7-2-0.7-4.2,0-6.1c1.3-3,3.3-6.7,1.7-9.7S227.6,852.3,225.2,856.7z"/>
		<path id="Path_828" class="st5" d="M283.8,915c2.4-4.4,2-10.3,3.3-11.9s6.1-7.3,6.1-7.3l2.9,0.6h11l2.3-2V872l-1.4-3.3h-11.9
			l-2.9,2.4l-4.3-0.7h-16.4c0,0-7.9,0-8,6.9c-2,2-3.3,5.3-1.9,8.1c-1.6,1.3-1.9,5.1,0,7.6c-0.1,3.6-0.4,6.9,3.9,6.7
			s11.6-1.3,11.6-1.3c0.7,2,0.7,4.2,0,6.1c-1.3,3-3.3,6.7-1.7,9.7S281.4,919.4,283.8,915z"/>
		<path id="Path_334" class="st7" d="M214.8,877.8c0.6-1.2,1.4-2.4,2.4-3.4c2.4-2.2,4.3-4.9,5.7-7.8c0.8-2,1.3-4,1.5-6.1
			c0.3-1.8,0.4-4.6,1.9-5.8c1.5-1.1,3.6-0.8,4.7,0.6c2.6,2.7,2.2,7.1,1.1,10.2c-0.3,0.8-3.4,8.4-0.4,7.6c2-0.5,10-2.2,12.6-0.3
			s2.8,3.9,2.1,5.9c1.3,2.2,1.9,6.2,0,7.5c0.7,2.5,0.8,6.5-1.8,7.4c0.3,3.3-1.8,6.2-5,7c-5.5,1.2-11.1,0.9-16.7,0.7
			c-1.2,0-8.1,0.4-8.1-1.5L214.8,877.8z"/>
		<path id="Rectangle_626" class="st7" d="M202.6,875h9.4c1.6,0,2.8,1.3,2.8,2.8v22.6c0,1.6-1.3,2.8-2.8,2.8h-9.4
			c-1.6,0-2.8-1.3-2.8-2.8v-22.6C199.7,876.2,201,875,202.6,875z"/>
		<path id="Path_335" class="st7" d="M294.6,893.6c-0.6,1.2-1.4,2.4-2.4,3.4c-2.4,2.2-4.3,4.9-5.7,7.8c-0.8,2-1.3,4-1.5,6.1
			c-0.3,1.8-0.4,4.6-1.9,5.8c-1.5,1.1-3.6,0.8-4.7-0.6c-2.6-2.7-2.2-7.1-1.1-10.2c0.3-0.8,3.4-8.4,0.4-7.6c-2,0.5-10,2.2-12.6,0.3
			s-2.8-3.9-2.1-5.9c-1.3-2.2-1.9-6.2,0-7.5c-0.7-2.5-0.8-6.5,1.8-7.4c-0.3-3.3,1.8-6.2,5-7c5.5-1.2,11.1-0.9,16.7-0.7
			c1.2,0,8.1-0.4,8.1,1.5L294.6,893.6z"/>
		<path id="Rectangle_627" class="st7" d="M306.8,896.5h-9.4c-1.6,0-2.8-1.3-2.8-2.8v-22.6c0-1.6,1.3-2.8,2.8-2.8h9.4
			c1.6,0,2.8,1.3,2.8,2.8v22.6C309.6,895.2,308.3,896.5,306.8,896.5z"/>
	</g>
</g>
</svg>
