<?xml version="1.0" encoding="utf-8"?>
<!-- Generator: Adobe Illustrator 25.4.1, SVG Export Plug-In . SVG Version: 6.00 Build 0)  -->
<svg version="1.1" id="Warstwa_1" xmlns="http://www.w3.org/2000/svg" xmlns:xlink="http://www.w3.org/1999/xlink" x="0px" y="0px"
	 viewBox="0 0 150.2 150.2" style="enable-background:new 0 0 150.2 150.2;" xml:space="preserve">
<style type="text/css">
	.st0{fill:none;stroke:#000000;stroke-width:1.4173;stroke-linecap:round;stroke-linejoin:round;stroke-miterlimit:10;}
	.st1{fill:none;stroke:#000000;stroke-width:1.4173;stroke-miterlimit:10;}
	.st2{fill:none;stroke:#000000;stroke-width:1.4173;stroke-linecap:round;stroke-linejoin:round;}
	.st3{fill:none;stroke:#000000;stroke-width:1.4173;stroke-linecap:round;stroke-miterlimit:10;}
	.st4{fill:#FFFFFF;stroke:#000000;stroke-width:1.4173;stroke-miterlimit:10;}
	.st5{fill:#FFFFFF;}
	.st6{fill:none;stroke:#1D1E1D;stroke-width:3;stroke-linecap:round;stroke-linejoin:round;}
	.st7{fill:none;stroke:#1D1E1D;stroke-width:3;stroke-miterlimit:10;}
	.st8{fill:none;stroke:#1D1E1D;stroke-width:3;stroke-linecap:round;stroke-miterlimit:10;}
	.st9{fill:none;stroke:#161615;stroke-width:3;stroke-linecap:round;stroke-linejoin:round;}
	.st10{fill:none;stroke:#161615;stroke-width:3;stroke-miterlimit:10;}
	.st11{fill:#FFFFFF;stroke:#161615;stroke-width:3;stroke-miterlimit:10;}
	.st12{fill:#161615;}
	.st13{fill:#010202;}
</style>
<g id="Component_56_1" transform="translate(584 1.5)">
	<g id="Group_2305" transform="translate(-763 -811.529)">

			<rect id="Rectangle_671_00000102528147967496387210000008761205234901099698_" x="217.6" y="849.6" class="st5" width="15" height="16"/>

			<rect id="Rectangle_672_00000108300948030526161240000009319785797311474576_" x="217.6" y="878.6" class="st5" width="15" height="16"/>

			<rect id="Rectangle_673_00000057123162092851127730000003359937681140885387_" x="217.6" y="907.6" class="st5" width="15" height="16"/>
		<path id="Rectangle_677_00000124121724276524417050000013530739782713918640_" class="st7" d="M218.1,850.2H231
			c0.6,0,1.1,0.5,1.1,1.1v12.9c0,0.6-0.5,1.1-1.1,1.1h-12.9c-0.6,0-1.1-0.5-1.1-1.1v-12.9C217,850.7,217.5,850.2,218.1,850.2z"/>
		<path id="Rectangle_678_00000168107109189156878890000002468210032419687604_" class="st7" d="M218.1,879.4H231
			c0.6,0,1.1,0.5,1.1,1.1v12.9c0,0.6-0.5,1.1-1.1,1.1h-12.9c-0.6,0-1.1-0.5-1.1-1.1v-12.9C217,879.9,217.5,879.4,218.1,879.4z"/>
		<path id="Rectangle_679_00000116199347450735443410000010983671647431533479_" class="st7" d="M218.1,908.6H231
			c0.6,0,1.1,0.5,1.1,1.1v12.9c0,0.6-0.5,1.1-1.1,1.1h-12.9c-0.6,0-1.1-0.5-1.1-1.1v-12.9C217,909.1,217.5,908.6,218.1,908.6z"/>
		<path id="Path_1016_00000104684400687017477390000002755122319023992727_" class="st6" d="M218.7,850.2l6.4,9.4l9.5-13.9"/>

			<line id="Line_8_00000120559548650673997580000014500204336893674152_" class="st8" x1="245.3" y1="853.1" x2="290.3" y2="853.1"/>

			<line id="Line_9_00000087395985087345291410000013638433040256058508_" class="st8" x1="245.3" y1="862.4" x2="274.8" y2="862.4"/>

			<line id="Line_10_00000031895053562180517080000010942834637913595282_" class="st8" x1="245.3" y1="882.3" x2="267.8" y2="882.3"/>
		<line id="Line_11_00000163779326205227685770000015314626546369045421_" class="st8" x1="245.3" y1="891.6" x2="286" y2="891.6"/>

			<line id="Line_12_00000021087510694032620540000010186904136611776937_" class="st8" x1="245.3" y1="911.5" x2="283.5" y2="911.5"/>
		<line id="Line_13_00000150063390355426575230000001375269719046347448_" class="st8" x1="245.3" y1="920.8" x2="286" y2="920.8"/>
	</g>
</g>
</svg>
