<?xml version="1.0" encoding="utf-8"?>
<!-- Generator: Adobe Illustrator 25.4.1, SVG Export Plug-In . SVG Version: 6.00 Build 0)  -->
<svg version="1.1" id="Warstwa_1" xmlns="http://www.w3.org/2000/svg" xmlns:xlink="http://www.w3.org/1999/xlink" x="0px" y="0px"
	 viewBox="0 0 150.2 150.2" style="enable-background:new 0 0 150.2 150.2;" xml:space="preserve">
<style type="text/css">
	.st0{fill:none;stroke:#000000;stroke-width:1.4173;stroke-linecap:round;stroke-linejoin:round;stroke-miterlimit:10;}
	.st1{fill:none;stroke:#000000;stroke-width:1.4173;stroke-miterlimit:10;}
	.st2{fill:none;stroke:#000000;stroke-width:1.4173;stroke-linecap:round;stroke-linejoin:round;}
	.st3{fill:none;stroke:#000000;stroke-width:1.4173;stroke-linecap:round;stroke-miterlimit:10;}
	.st4{fill:#FFFFFF;stroke:#000000;stroke-width:1.4173;stroke-miterlimit:10;}
	.st5{fill:#FFFFFF;}
	.st6{fill:none;stroke:#1D1E1D;stroke-width:3;stroke-linecap:round;stroke-linejoin:round;}
	.st7{fill:none;stroke:#1D1E1D;stroke-width:3;stroke-miterlimit:10;}
	.st8{fill:none;stroke:#1D1E1D;stroke-width:3;stroke-linecap:round;stroke-miterlimit:10;}
	.st9{fill:none;stroke:#161615;stroke-width:3;stroke-linecap:round;stroke-linejoin:round;}
	.st10{fill:none;stroke:#161615;stroke-width:3;stroke-miterlimit:10;}
	.st11{fill:#FFFFFF;stroke:#161615;stroke-width:3;stroke-miterlimit:10;}
	.st12{fill:#161615;}
	.st13{fill:none;stroke:#000000;stroke-width:0.9921;stroke-miterlimit:10;}
	.st14{fill:none;stroke:#000000;stroke-width:2.8346;stroke-linecap:round;stroke-linejoin:round;stroke-miterlimit:10;}
</style>
<g>
	<path class="st14" d="M72.9,50.1l21.3,9.6c2.1,1,3.5,3,3.7,5.3l0.4,6.5c0.2,3.5-0.4,7.1-1.8,10.3L79,123.4c-1.7,4-6.4,5.9-10.4,4.1
		l-29-13.1c-3.9-1.8-5.7-6.4-3.9-10.3L54.2,63c1.5-3.4,3.9-6.4,6.8-8.7l4.9-3.8c0.7-0.5,1.5-0.9,2.3-1.1"/>
	<g>
		<polygon class="st14" points="71.2,80.8 71.6,91.1 80.3,96.7 70.6,100.2 68,110.2 61.6,102.1 51.3,102.7 57,94.1 53.3,84.5
			63.2,87.3 		"/>
	</g>
	<circle class="st14" cx="78.4" cy="64.9" r="3.8"/>
	<path class="st14" d="M78.4,64.9c-6.6-3-7.5-15.5-1.8-28c5.6-12.5,15.6-20.1,22.2-17.2c6.6,3,7.5,15.5,1.8,28
		c-1.2,2.7-2.6,5.2-4.2,7.4"/>
</g>
</svg>
