<svg xmlns="http://www.w3.org/2000/svg" width="212" height="50.04" viewBox="0 0 212 50.04">
  <g id="Group_2195" data-name="Group 2195" transform="translate(-67.157 -88.626)">
    <path id="Path_290" data-name="Path 290" d="M704.551,113.6c-7.157,0-11.884,4.7-11.884,10.489s3.722,10.491,11.884,10.491,11.893-4.7,11.893-10.491S711.713,113.6,704.551,113.6m0,19.761c-5.9,0-8.582-4.128-8.582-9.215s3.414-9.213,8.582-9.213,8.6,4.126,8.6,9.213-2.683,9.215-8.6,9.215" transform="translate(-482.61 -19.27)"/>
    <path id="Path_291" data-name="Path 291" d="M450.676,115.267l0,15.577-14.5-15.577h-2.723v20.215h1.576v-16.2l15.086,16.2h2.122V115.267Z" transform="translate(-282.618 -20.555)"/>
    <path id="Path_292" data-name="Path 292" d="M823.942,115.267l.007,15.577-14.508-15.577h-2.718v20.215H808.3v-16.2l15.084,16.2h2.125V115.267Z" transform="translate(-570.61 -20.555)"/>
    <rect id="Rectangle_621" data-name="Rectangle 621" width="3.589" height="20.215" transform="translate(143.176 94.711)"/>
    <path id="Path_293" data-name="Path 293" d="M631.906,115.267l-20.138,0V116.9l8.272-.124v18.706h3.589V116.776l8.277.124Z" transform="translate(-420.194 -20.555)"/>
    <path id="Path_294" data-name="Path 294" d="M901.473,113.56a1.681,1.681,0,1,0,1.675,1.68,1.677,1.677,0,0,0-1.675-1.68m0,3.006a1.323,1.323,0,1,1,1.258-1.326,1.3,1.3,0,0,1-1.258,1.326m.74-1.733c0-.387-.246-.551-.723-.551h-.747V116.2h.335v-.816h.283l.489.816h.392l-.527-.822a.528.528,0,0,0,.5-.549m-1.135.283v-.553h.372c.194,0,.427.032.427.261,0,.263-.219.292-.452.292Z" transform="translate(-642.414 -19.238)"/>
    <path id="Path_295" data-name="Path 295" d="M185.23,135.372V115.125h14.92v1.653l-11.382-.218v7.4l8.86,0v1.222h-8.86v8.751l11.8-.167v1.608Z" transform="translate(-91.099 -20.445)"/>
    <path id="Path_296" data-name="Path 296" d="M268.8,114.988l10.278,17.42L288.2,115h3.716v20.269H288.2l-.013-17.192-9,17.192h-2.586l-9.6-15.958.033,15.958h-1.579V115Z" transform="translate(-152.99 -20.339)"/>
    <path id="Path_297" data-name="Path 297" d="M92.509,120.519l-11.33-10.39c.44-.029.9-.06,1.335-.107,2.587-.347,7.79-1.777,8.138-7.144.144-7-11.025-6.993-13.423-6.993H67.157v24.663h4.185V110.264h5.364l11.4,10.255ZM71.342,97.091h3.746c2.58,0,12.15-.107,12.15,5.729,0,5.283-6.634,6.231-9.632,6.231H71.342Z" transform="translate(0 -5.601)"/>
    <path id="Path_298" data-name="Path 298" d="M543.514,113.922a24.6,24.6,0,0,0-4.886-.47c-7.776,0-12.418,4.757-12.418,10.543s3.712,10.486,11.881,10.486c3.768,0,6.477-.956,8.545-2.654v-7.469h-5.141l1.631,1.472v6.055a8.745,8.745,0,0,1-5.035,1.383c-5.894,0-8.59-4.131-8.59-9.217s3.5-9.252,9.135-9.252a13.831,13.831,0,0,1,4.88.729Z" transform="translate(-354.18 -19.154)"/>
    <rect id="Rectangle_622" data-name="Rectangle 622" width="12.283" height="50.04" transform="translate(266.874 88.626)" fill="#e52713"/>
    <path id="Path_299" data-name="Path 299" d="M105.581,243.527h6.313v1.338h-4.818v2.214h4.27v1.338h-4.27V250.7h4.878v1.338h-6.373Z" transform="translate(-29.646 -119.513)"/>
    <path id="Path_300" data-name="Path 300" d="M150.581,250.389l.9-1.07a3.948,3.948,0,0,0,2.689,1.107c.924,0,1.507-.439,1.507-1.07v-.025c0-.608-.34-.936-1.921-1.3-1.814-.439-2.835-.973-2.835-2.542v-.025c0-1.458,1.217-2.468,2.907-2.468a4.721,4.721,0,0,1,3.09,1.07l-.8,1.132a3.862,3.862,0,0,0-2.311-.876c-.876,0-1.386.449-1.386,1.008v.025c0,.656.389.949,2.031,1.338,1.8.437,2.725,1.084,2.725,2.493v.023c0,1.594-1.254,2.544-3.041,2.544a5.245,5.245,0,0,1-3.552-1.363" transform="translate(-64.366 -119.102)"/>
    <path id="Path_301" data-name="Path 301" d="M198.23,244.913h-2.7v-1.387h6.907v1.387h-2.7v7.127H198.23Z" transform="translate(-99.047 -119.513)"/>
    <rect id="Rectangle_623" data-name="Rectangle 623" width="1.618" height="1.678" transform="translate(103.491 130.848)"/>
    <path id="Path_302" data-name="Path 302" d="M278.977,243.527h1.387l4.561,5.886v-5.886H286.4v8.513h-1.254l-4.694-6.057v6.057h-1.472Z" transform="translate(-163.429 -119.513)"/>
    <path id="Path_303" data-name="Path 303" d="M332.87,243.527h6.313v1.338h-4.818v2.214h4.27v1.338h-4.27V250.7h4.878v1.338H332.87Z" transform="translate(-205.01 -119.513)"/>
    <path id="Path_304" data-name="Path 304" d="M377.5,243.442h1.618l2.031,6.313,2.091-6.338H384.5l2.092,6.338,2.031-6.313H390.2l-2.956,8.574h-1.3l-2.093-6.117-2.091,6.117h-1.289Z" transform="translate(-239.443 -119.428)"/>
    <path id="Path_305" data-name="Path 305" d="M478.975,248.685l-3.381-5.156h1.775l2.373,3.758,2.408-3.758h1.715l-3.383,5.119v3.394h-1.507Z" transform="translate(-315.129 -119.515)"/>
    <path id="Path_306" data-name="Path 306" d="M531.866,247.314v-.025a2.917,2.917,0,0,0-2.9-3.027,2.876,2.876,0,0,0-2.87,3v.023a2.907,2.907,0,0,0,2.894,3.017,2.867,2.867,0,0,0,2.872-2.992m-7.335,0v-.025a4.452,4.452,0,0,1,8.9-.023v.023a4.452,4.452,0,0,1-8.9.025" transform="translate(-352.886 -119.02)"/>
    <path id="Path_307" data-name="Path 307" d="M586.957,247.747c1.07,0,1.752-.559,1.752-1.422V246.3c0-.913-.656-1.412-1.763-1.412h-2.179v2.858Zm-3.686-4.22h3.795a3.432,3.432,0,0,1,2.457.85,2.574,2.574,0,0,1,.707,1.837v.025a2.559,2.559,0,0,1-2.02,2.579l2.3,3.222h-1.777l-2.091-2.967h-1.874v2.967h-1.5Z" transform="translate(-398.206 -119.513)"/>
    <path id="Path_308" data-name="Path 308" d="M633.6,243.527h1.5v4.282l4.051-4.282h1.849l-3.552,3.661,3.711,4.853h-1.825l-2.907-3.831-1.326,1.363v2.468h-1.5Z" transform="translate(-437.034 -119.513)"/>
    <path id="Path_309" data-name="Path 309" d="M710.32,244.78l-1.532.425-.317-1.216,2.3-.73H711.8v8.575H710.32Z" transform="translate(-494.804 -119.307)"/>
    <path id="Path_310" data-name="Path 310" d="M748.1,245.768v-.024a1.609,1.609,0,0,0-1.777-1.569,1.562,1.562,0,0,0-1.689,1.581v.025a1.555,1.555,0,0,0,1.738,1.521,1.574,1.574,0,0,0,1.728-1.534m.06,1.874a2.484,2.484,0,0,1-2.006.913,2.7,2.7,0,0,1-3.017-2.7v-.024a2.962,2.962,0,0,1,3.175-2.944,3.1,3.1,0,0,1,2.373.9,4.312,4.312,0,0,1,1.02,3.247v.025c0,2.736-1.35,4.633-3.649,4.633a4.044,4.044,0,0,1-2.725-1.021l.816-1.144a2.9,2.9,0,0,0,1.946.8c1.509,0,2.056-1.556,2.068-2.688" transform="translate(-521.551 -119.019)"/>
    <path id="Path_311" data-name="Path 311" d="M788.512,250.691l1.047-.973a2.778,2.778,0,0,0,2.237,1.119,1.333,1.333,0,0,0,1.472-1.289v-.023c0-.841-.767-1.315-1.958-1.315h-.693l-.244-.936,2.3-2.445h-3.686v-1.3h5.631v1.119l-2.371,2.433c1.289.157,2.505.814,2.505,2.383v.025a2.725,2.725,0,0,1-2.979,2.7,4.036,4.036,0,0,1-3.26-1.5" transform="translate(-556.56 -119.513)"/>
    <path id="Path_312" data-name="Path 312" d="M837.685,244.842H833.4v-1.313h5.985v1.13l-3.831,7.383h-1.691Z" transform="translate(-591.196 -119.515)"/>
  </g>
</svg>
